# Blender v2.80 (sub 75) OBJ File: 'furniture.blend'
# www.blender.org
mtllib lamp.mtl
o Cylinder.001
v -10.244000 3.525279 -24.619804
v -10.072561 7.195774 -24.298969
v -10.247399 3.517087 -24.524260
v -10.075960 7.187581 -24.203424
v -10.332116 3.517087 -24.478991
v -10.160678 7.187581 -24.158155
v -10.413435 3.525279 -24.529266
v -10.241996 7.195774 -24.208431
v -10.410036 3.533472 -24.624811
v -10.238597 7.203967 -24.303976
v -10.325318 3.533472 -24.670080
v -10.153880 7.203967 -24.349245
v -9.608887 7.613340 -24.464964
v -9.636782 8.992979 -24.476711
v -9.629351 7.605769 -23.864445
v -9.656597 8.985648 -23.895208
v -10.160416 7.605769 -23.580669
v -10.170847 8.985648 -23.620419
v -10.671019 7.613340 -23.897413
v -10.665280 8.992979 -23.927132
v -10.650555 7.620912 -24.497931
v -10.645465 9.000311 -24.508635
v -10.119489 7.620912 -24.781706
v -10.131215 9.000311 -24.783422
v -9.484186 8.983091 -23.788256
v -9.457460 8.992979 -24.572531
v -10.177756 8.983091 -23.417646
v -10.844602 8.992979 -23.831310
v -10.817876 9.002868 -24.615585
v -10.124306 9.002868 -24.986197
v -9.446382 7.613340 -24.551798
v -9.473107 7.603453 -23.767523
v -10.166678 7.603453 -23.396914
v -10.833523 7.613340 -23.810577
v -10.806797 7.623229 -24.594852
v -10.113227 7.623229 -24.965464
v -9.588942 3.509716 -23.900362
v -10.039495 7.190235 -24.027710
v -9.662171 3.504014 -23.961447
v -10.112725 7.184532 -24.088795
v -9.645731 3.505114 -24.055914
v -10.096285 7.185633 -24.183260
v -9.556062 3.511917 -24.089294
v -10.006616 7.192435 -24.216642
v -9.482832 3.517619 -24.028210
v -9.933386 7.198137 -24.155558
v -9.499272 3.516519 -23.933744
v -9.949826 7.197037 -24.061092
v -10.602946 3.503816 -23.928495
v -10.247679 7.180274 -24.170250
v -10.507521 3.496081 -23.921392
v -10.152254 7.172539 -24.163147
v -10.465763 3.494688 -23.835188
v -10.110496 7.171145 -24.076944
v -10.519430 3.501029 -23.756088
v -10.164163 7.177487 -23.997843
v -10.614856 3.508764 -23.763189
v -10.259588 7.185222 -24.004946
v -10.656614 3.510158 -23.849394
v -10.301347 7.186616 -24.091148
v -10.459369 7.184944 -24.255144
v -10.460208 7.289443 -24.256714
v -10.047804 7.184944 -24.475063
v -10.048643 7.289443 -24.476633
v -10.240064 7.178169 -23.844730
v -10.240903 7.282668 -23.846300
v -9.828500 7.178169 -24.064650
v -9.829339 7.282668 -24.066219
v -10.091886 7.240458 -24.191362
v -10.097342 7.919855 -24.201572
v -10.094254 7.239581 -24.121849
v -10.099710 7.918979 -24.132059
v -10.155727 7.239581 -24.089001
v -10.161183 7.918979 -24.099211
v -10.214832 7.240458 -24.125666
v -10.220287 7.919855 -24.135876
v -10.212463 7.241334 -24.195179
v -10.217918 7.920732 -24.205387
v -10.150990 7.241334 -24.228025
v -10.156446 7.920732 -24.238235
v -10.107075 8.836124 -24.145842
v -10.104706 8.837001 -24.215355
v -10.168548 8.836124 -24.112993
v -10.227653 8.837001 -24.149658
v -10.225284 8.837877 -24.219170
v -10.163811 8.837877 -24.252018
v -10.107781 8.924119 -24.147163
v -10.105412 8.924995 -24.216677
v -10.169254 8.924119 -24.114317
v -10.228359 8.924995 -24.150980
v -10.225990 8.925872 -24.220493
v -10.164517 8.925872 -24.253342
v -9.638804 8.829182 -23.855358
v -9.617668 8.837001 -24.475603
v -10.187315 8.829182 -23.562262
v -10.714690 8.837001 -23.889410
v -10.693554 8.844821 -24.509653
v -10.145043 8.844821 -24.802750
v -9.639511 8.917175 -23.856682
v -9.618375 8.924995 -24.476925
v -10.188022 8.917175 -23.563583
v -10.715397 8.924995 -23.890732
v -10.694261 8.932816 -24.510975
v -10.145750 8.932816 -24.804073
v -10.146295 9.021856 -24.172031
v -10.145438 9.022173 -24.197166
v -10.168523 9.021856 -24.160154
v -10.189895 9.022173 -24.173412
v -10.189038 9.022491 -24.198545
v -10.166810 9.022491 -24.210424
vt 0.967746 0.037934
vt 0.967746 0.492868
vt 0.816101 0.492868
vt 0.816101 0.037934
vt 0.664456 0.492868
vt 0.664456 0.037934
vt 0.512812 0.492868
vt 0.512812 0.037934
vt 0.361167 0.492868
vt 0.361167 0.037934
vt 0.457846 0.370000
vt 0.250000 0.490000
vt 0.042154 0.370000
vt 0.042154 0.130000
vt 0.250000 0.010000
vt 0.457846 0.130000
vt 0.209522 0.492868
vt 0.209522 0.037934
vt 0.057877 0.492868
vt 0.057877 0.037934
vt 0.750000 0.490000
vt 0.957846 0.370000
vt 0.957846 0.130000
vt 0.750000 0.010000
vt 0.542154 0.130000
vt 0.542154 0.370000
vt 0.745758 0.627121
vt 0.745758 0.872879
vt 0.663838 0.872879
vt 0.663838 0.627121
vt 0.581919 0.872879
vt 0.581919 0.627121
vt 0.500000 0.872879
vt 0.500000 0.627121
vt 0.440102 0.679693
vt 0.440102 0.820307
vt 0.393231 0.820307
vt 0.393231 0.679693
vt 0.309298 0.882079
vt 0.206024 0.822454
vt 0.206024 0.822454
vt 0.309298 0.882079
vt 0.418081 0.627121
vt 0.418081 0.872879
vt 0.336161 0.872879
vt 0.336161 0.627121
vt 0.254242 0.872879
vt 0.254242 0.627121
vt 0.480610 0.892106
vt 0.578307 0.835700
vt 0.612374 0.855369
vt 0.480610 0.931443
vt 0.578307 0.722890
vt 0.612374 0.703221
vt 0.480610 0.666485
vt 0.480610 0.627147
vt 0.382913 0.722890
vt 0.348846 0.703221
vt 0.382913 0.835700
vt 0.348846 0.855369
vt 0.206024 0.703203
vt 0.309298 0.643577
vt 0.309298 0.643577
vt 0.206024 0.703203
vt 0.412572 0.703203
vt 0.412572 0.822454
vt 0.412572 0.822454
vt 0.412572 0.703203
vt 0.425792 0.880032
vt 0.425792 0.702083
vt 0.425792 0.702083
vt 0.425792 0.880032
vt 0.478229 0.823988
vt 0.567261 0.861927
vt 0.567261 0.885145
vt 0.450985 0.835597
vt 0.478229 0.748112
vt 0.450985 0.736503
vt 0.567261 0.710174
vt 0.567261 0.686956
vt 0.656294 0.748112
vt 0.683537 0.736503
vt 0.656294 0.823988
vt 0.683537 0.835597
vt 0.967746 0.037934
vt 0.967746 0.492868
vt 0.816101 0.492868
vt 0.816101 0.037934
vt 0.664456 0.492868
vt 0.664456 0.037934
vt 0.512812 0.492868
vt 0.512812 0.037934
vt 0.361167 0.492868
vt 0.361167 0.037934
vt 0.457846 0.370000
vt 0.250000 0.490000
vt 0.042154 0.370000
vt 0.042154 0.130000
vt 0.250000 0.010000
vt 0.457846 0.130000
vt 0.209522 0.492868
vt 0.209522 0.037934
vt 0.057877 0.492868
vt 0.057877 0.037934
vt 0.750000 0.490000
vt 0.957846 0.370000
vt 0.957846 0.130000
vt 0.750000 0.010000
vt 0.542154 0.130000
vt 0.542154 0.370000
vt 0.967746 0.037934
vt 0.967746 0.492868
vt 0.816101 0.492868
vt 0.816101 0.037934
vt 0.664456 0.492868
vt 0.664456 0.037934
vt 0.512812 0.492868
vt 0.512812 0.037934
vt 0.361167 0.492868
vt 0.361167 0.037934
vt 0.457846 0.370000
vt 0.250000 0.490000
vt 0.042154 0.370000
vt 0.042154 0.130000
vt 0.250000 0.010000
vt 0.457846 0.130000
vt 0.209522 0.492868
vt 0.209522 0.037934
vt 0.057877 0.492868
vt 0.057877 0.037934
vt 0.750000 0.490000
vt 0.957846 0.370000
vt 0.957846 0.130000
vt 0.750000 0.010000
vt 0.542154 0.130000
vt 0.542154 0.370000
vt 0.375000 0.000000
vt 0.625000 0.000000
vt 0.625000 0.250000
vt 0.375000 0.250000
vt 0.625000 0.500000
vt 0.375000 0.500000
vt 0.399078 0.037934
vt 0.626545 0.037934
vt 0.626545 0.265401
vt 0.399078 0.265401
vt 0.626545 0.492868
vt 0.399078 0.492868
vt 0.171611 0.037934
vt 0.171611 0.265401
vt 0.854012 0.037934
vt 0.854012 0.265401
vt 0.967746 0.037934
vt 0.967746 0.492868
vt 0.816101 0.492868
vt 0.816101 0.037934
vt 0.664456 0.492868
vt 0.664456 0.037934
vt 0.512812 0.492868
vt 0.512812 0.037934
vt 0.361167 0.492868
vt 0.361167 0.037934
vt 0.500000 1.000000
vt 0.666667 1.000000
vt 0.666667 1.000000
vt 0.500000 1.000000
vt 0.209522 0.492868
vt 0.209522 0.037934
vt 0.057877 0.492868
vt 0.057877 0.037934
vt 0.750000 0.490000
vt 0.957846 0.370000
vt 0.957846 0.130000
vt 0.750000 0.010000
vt 0.542154 0.130000
vt 0.542154 0.370000
vt 0.666667 1.000000
vt 0.500000 1.000000
vt -0.000000 1.000000
vt 0.166667 1.000000
vt 0.166667 1.000000
vt -0.000000 1.000000
vt 0.333333 1.000000
vt 0.333333 1.000000
vt 0.833333 1.000000
vt 0.833333 1.000000
vt 1.000000 1.000000
vt 1.000000 1.000000
vt 0.042154 0.130000
vt 0.250000 0.010000
vt 0.250000 0.010000
vt 0.042154 0.130000
vt 0.416552 0.968750
vt 0.562289 0.884608
vt 0.562289 0.884608
vt 0.416552 0.968750
vt 0.166667 1.000000
vt -0.000000 1.000000
vt 0.416552 0.632184
vt 0.270814 0.716325
vt 0.270814 0.716325
vt 0.416552 0.632184
vt 0.833333 1.000000
vt 0.333333 1.000000
vt 0.833333 1.000000
vt 0.666667 1.000000
vt 0.333333 1.000000
vt 0.166667 1.000000
vt 0.500000 1.000000
vt 1.000000 1.000000
vt 1.000000 1.000000
vt -0.000000 1.000000
vt 0.270814 0.884608
vt 0.270814 0.884608
vt 0.562289 0.716325
vt 0.562289 0.716325
vt 0.457846 0.370000
vt 0.250000 0.490000
vt 0.042154 0.370000
vt 0.457846 0.130000
vt 0.457846 0.130000
vt 0.457846 0.370000
vt 0.042154 0.370000
vt 0.250000 0.490000
vn 0.9983 -0.0494 0.0313
vn 0.4690 -0.0986 0.8777
vn -0.5288 -0.0494 0.8473
vn -0.9983 0.0494 -0.0313
vn 0.0465 0.9951 0.0870
vn -0.4690 0.0986 -0.8777
vn 0.5288 0.0494 -0.8473
vn -0.0465 -0.9951 -0.0870
vn 0.9994 0.0085 0.0342
vn 0.4712 0.0170 0.8819
vn -0.5270 0.0085 0.8498
vn -0.9994 -0.0085 -0.0342
vn -0.5272 -0.0034 0.8497
vn -0.4712 -0.0170 -0.8819
vn 0.5270 -0.0085 -0.8498
vn 0.0069 0.9999 0.0128
vn 0.9994 -0.0034 0.0340
vn -0.4711 -0.0290 -0.8816
vn 0.4713 0.0051 0.8820
vn 0.5268 -0.0205 -0.8497
vn -0.9992 -0.0205 -0.0343
vn -0.0069 -0.9999 -0.0128
vn -0.6373 -0.0514 0.7689
vn -0.9771 -0.1256 -0.1715
vn -0.3430 -0.0744 -0.9364
vn 0.6373 0.0514 -0.7689
vn -0.0763 0.9971 -0.0017
vn 0.9771 0.1255 0.1715
vn 0.3430 0.0744 0.9364
vn 0.0763 -0.9971 0.0017
vn 0.0682 -0.0720 -0.9951
vn 0.8933 -0.1149 -0.4346
vn 0.8252 -0.0427 0.5633
vn -0.0682 0.0720 0.9951
vn 0.0825 0.9963 -0.0239
vn -0.8933 0.1149 0.4346
vn -0.8252 0.0427 -0.5633
vn -0.0825 -0.9963 0.0239
vn 0.8820 -0.0000 -0.4713
vn -0.8820 -0.0000 0.4713
vn 0.4712 0.0170 0.8818
vn -0.5271 0.0085 0.8498
vn -0.9316 0.3625 -0.0272
vn 0.4360 0.3794 0.8160
vn -0.4405 0.3557 -0.8243
vn -0.4848 0.3743 0.7905
vn 0.9266 0.3744 0.0363
vn 0.4952 0.3625 -0.7895
usemtl Material.014
s off
f 1/1/1 2/2/1 4/3/1 3/4/1
f 3/4/2 4/3/2 6/5/2 5/6/2
f 5/6/3 6/5/3 8/7/3 7/8/3
f 7/8/4 8/7/4 10/9/4 9/10/4
f 4/11/5 2/12/5 12/13/5 10/14/5 8/15/5 6/16/5
f 9/10/6 10/9/6 12/17/6 11/18/6
f 11/18/7 12/17/7 2/19/7 1/20/7
f 1/21/8 3/22/8 5/23/8 7/24/8 9/25/8 11/26/8
f 31/27/9 26/28/9 25/29/9 32/30/9
f 32/30/10 25/29/10 27/31/10 33/32/10
f 33/32/11 27/31/11 28/33/11 34/34/11
f 34/35/12 28/36/12 29/37/12 35/38/12
f 14/39/13 24/40/13 23/41/13 13/42/13
f 35/43/14 29/44/14 30/45/14 36/46/14
f 36/46/15 30/45/15 26/47/15 31/48/15
f 14/49/16 16/50/16 25/51/16 26/52/16
f 16/50/16 18/53/16 27/54/16 25/51/16
f 18/53/16 20/55/16 28/56/16 27/54/16
f 20/55/16 22/57/16 29/58/16 28/56/16
f 22/57/16 24/59/16 30/60/16 29/58/16
f 24/59/16 14/49/16 26/52/16 30/60/16
f 22/61/17 20/62/17 19/63/17 21/64/17
f 18/65/18 16/66/18 15/67/18 17/68/18
f 24/69/19 22/70/19 21/71/19 23/72/19
f 20/62/20 18/65/20 17/68/20 19/63/20
f 16/66/21 14/39/21 13/42/21 15/67/21
f 15/73/22 13/74/22 31/75/22 32/76/22
f 17/77/22 15/73/22 32/76/22 33/78/22
f 19/79/22 17/77/22 33/78/22 34/80/22
f 21/81/22 19/79/22 34/80/22 35/82/22
f 23/83/22 21/81/22 35/82/22 36/84/22
f 13/74/22 23/83/22 36/84/22 31/75/22
f 37/85/23 38/86/23 40/87/23 39/88/23
f 39/88/24 40/87/24 42/89/24 41/90/24
f 41/90/25 42/89/25 44/91/25 43/92/25
f 43/92/26 44/91/26 46/93/26 45/94/26
f 40/95/27 38/96/27 48/97/27 46/98/27 44/99/27 42/100/27
f 45/94/28 46/93/28 48/101/28 47/102/28
f 47/102/29 48/101/29 38/103/29 37/104/29
f 37/105/30 39/106/30 41/107/30 43/108/30 45/109/30 47/110/30
f 49/111/31 50/112/31 52/113/31 51/114/31
f 51/114/32 52/113/32 54/115/32 53/116/32
f 53/116/33 54/115/33 56/117/33 55/118/33
f 55/118/34 56/117/34 58/119/34 57/120/34
f 52/121/35 50/122/35 60/123/35 58/124/35 56/125/35 54/126/35
f 57/120/36 58/119/36 60/127/36 59/128/36
f 59/128/37 60/127/37 50/129/37 49/130/37
f 49/131/38 51/132/38 53/133/38 55/134/38 57/135/38 59/136/38
f 61/137/14 62/138/14 64/139/14 63/140/14
f 63/140/39 64/139/39 68/141/39 67/142/39
f 67/143/10 68/144/10 66/145/10 65/146/10
f 65/146/40 66/145/40 62/147/40 61/148/40
f 63/149/22 67/143/22 65/146/22 61/150/22
f 68/144/16 64/151/16 62/152/16 66/145/16
f 69/153/9 70/154/9 72/155/9 71/156/9
f 71/156/41 72/155/41 74/157/41 73/158/41
f 73/158/42 74/157/42 76/159/42 75/160/42
f 75/160/12 76/159/12 78/161/12 77/162/12
f 76/163/11 74/164/11 83/165/11 84/166/11
f 77/162/14 78/161/14 80/167/14 79/168/14
f 79/168/15 80/167/15 70/169/15 69/170/15
f 69/171/22 71/172/22 73/173/22 75/174/22 77/175/22 79/176/22
f 84/166/22 83/165/22 95/177/22 96/178/22
f 70/179/15 80/180/15 86/181/15 82/182/15
f 78/183/12 76/163/12 84/166/12 85/184/12
f 74/164/10 72/185/10 81/186/10 83/165/10
f 80/180/14 78/183/14 85/184/14 86/181/14
f 72/185/9 70/187/9 82/188/9 81/186/9
f 91/189/43 90/190/43 108/191/43 109/192/43
f 88/193/16 87/194/16 99/195/16 100/196/16
f 82/182/22 86/181/22 98/197/22 94/198/22
f 90/199/16 91/200/16 103/201/16 102/202/16
f 83/165/22 81/186/22 93/203/22 95/177/22
f 86/181/22 85/184/22 97/204/22 98/197/22
f 95/177/10 93/203/10 99/205/10 101/206/10
f 98/197/14 97/204/14 103/207/14 104/208/14
f 96/178/11 95/177/11 101/206/11 102/209/11
f 93/203/9 94/210/9 100/211/9 99/205/9
f 94/198/15 98/197/15 104/208/15 100/212/15
f 97/204/12 96/178/12 102/209/12 103/207/12
f 91/200/16 92/213/16 104/214/16 103/201/16
f 87/194/16 89/215/16 101/216/16 99/195/16
f 85/184/22 84/166/22 96/178/22 97/204/22
f 92/213/16 88/193/16 100/196/16 104/214/16
f 81/186/22 82/188/22 94/210/22 93/203/22
f 89/215/16 90/199/16 102/202/16 101/216/16
f 105/217/16 106/218/16 110/219/16 109/192/16 108/191/16 107/220/16
f 89/221/44 87/222/44 105/217/44 107/220/44
f 92/223/45 91/189/45 109/192/45 110/219/45
f 90/190/46 89/221/46 107/220/46 108/191/46
f 87/222/47 88/224/47 106/218/47 105/217/47
f 88/224/48 92/223/48 110/219/48 106/218/48
