# Blender v2.80 (sub 75) OBJ File: 'furniture.blend'
# www.blender.org
mtllib room.mtl
o Cube.002
v -12.378681 3.284663 -9.857311
v -11.871949 10.439856 -10.364044
v -12.378681 3.284663 -26.811789
v -11.871949 10.439856 -26.305056
v 4.575796 3.284663 -9.857311
v 4.069063 10.439856 -10.364044
v 4.575796 3.284663 -26.811789
v 4.069063 10.439856 -26.305056
v -12.378681 10.439856 -9.857311
v -12.378681 10.439856 -26.811789
v 4.575796 10.439856 -26.811789
v 4.575796 10.439856 -9.857311
v -11.871949 3.499308 -10.364044
v -11.871949 3.499308 -26.305056
v 4.069063 3.499308 -26.305056
v 4.069063 3.499308 -10.364044
v -12.378681 3.284663 -15.301863
v -12.378681 10.439856 -15.301863
v 4.575796 3.284663 -15.301863
v 4.575796 10.439856 -15.301863
v -11.871949 10.439856 -15.483143
v 4.069063 10.439856 -15.483143
v -11.871949 3.499308 -15.483143
v 4.069063 3.499308 -15.483143
v -12.378681 10.439856 -21.056826
v 4.575796 3.284663 -21.056826
v -11.871949 10.439856 -20.894098
v -11.871949 3.499308 -20.894098
v -12.378681 3.284663 -21.056826
v 4.575796 10.439856 -21.056826
v 4.069063 10.439856 -20.894098
v 4.069063 3.499308 -20.894098
v 4.069063 4.282154 -10.364044
v -11.871949 4.282154 -10.364044
v -11.871949 4.282154 -26.305056
v 4.069063 4.282154 -26.305056
v -11.871949 4.282154 -15.483143
v 4.069063 4.282154 -15.483143
v -11.871949 4.282154 -20.894098
v 4.069063 4.282154 -20.894098
v -11.871949 9.132318 -10.364044
v 4.069063 9.132318 -26.305056
v 4.069063 9.132318 -10.364044
v -11.871949 9.132318 -26.305056
v -11.871949 9.132318 -15.483143
v 4.069063 9.132318 -15.483143
v -11.871949 9.132318 -20.894098
v 4.069063 9.132318 -20.894098
v -6.312446 3.284663 -26.811789
v -6.312446 10.439856 -26.811789
v -6.312446 3.284663 -9.857311
v -6.312446 10.439856 -9.857311
v -6.168327 10.439856 -26.305056
v -6.168327 10.439856 -10.364044
v -6.168327 3.499308 -26.305056
v -6.168327 3.499308 -10.364044
v -6.168327 3.499308 -15.483143
v -6.312446 3.284663 -15.301863
v -6.312446 3.284663 -21.056826
v -6.168327 3.499308 -20.894098
v -6.168327 4.282154 -26.305056
v -6.168327 4.282154 -10.364044
v -6.168327 9.132318 -10.364044
v -6.168327 9.132318 -26.305056
v -0.586968 10.439856 -26.811789
v -0.586968 3.284663 -9.857311
v -0.785094 10.439856 -26.305056
v -0.785094 3.499308 -26.305056
v -0.785094 3.499308 -15.483143
v -0.785094 3.499308 -20.894098
v -0.785094 4.282154 -26.305056
v -0.785094 9.132318 -26.305056
v -0.586968 3.284663 -26.811789
v -0.586968 10.439856 -9.857311
v -0.785094 10.439856 -10.364044
v -0.785094 3.499308 -10.364044
v -0.586968 3.284663 -15.301863
v -0.586968 3.284663 -21.056826
v -0.785094 4.282154 -10.364044
v -0.785094 9.132318 -10.364044
v -12.378681 9.061686 -9.857311
v -12.378681 9.061686 -26.811789
v 4.575796 9.061686 -26.811789
v 4.575796 9.061686 -9.857311
v 4.575796 8.885448 -15.571014
v -12.378681 8.931600 -15.522537
v 4.575796 8.885448 -20.787674
v -12.378681 8.931600 -20.836153
v -6.098374 8.935492 -9.857311
v -6.052529 8.908466 -26.811789
v -0.801040 8.935492 -9.857311
v -0.846886 8.908466 -26.811789
v -12.378681 4.302478 -26.811789
v 4.575796 4.302478 -26.811789
v 4.575796 4.302478 -9.857311
v 4.575796 4.478715 -15.571014
v -12.378681 4.432564 -15.522537
v 4.575796 4.478715 -20.787674
v -12.378681 4.432564 -20.836153
v -6.098374 4.428673 -9.857311
v -6.052529 4.455698 -26.811789
v -0.801041 4.428673 -9.857311
v -0.846885 4.455698 -26.811789
v -12.378681 4.302478 -9.857311
v -6.312446 9.061686 -26.811789
v -0.586968 9.061686 -26.811789
v -6.312446 4.302478 -26.811789
v -0.586968 4.302478 -26.811789
v -12.378681 9.061686 -15.301863
v -12.378681 9.061686 -21.056826
v -12.378681 4.302478 -15.301863
v -12.378681 4.302478 -21.056826
v -0.586968 9.061686 -9.857311
v -6.312446 9.061686 -9.857311
v -6.312446 4.302478 -9.857311
v -0.586968 4.302478 -9.857311
v 4.575796 9.061686 -21.056826
v 4.575796 9.061686 -15.301863
v 4.575796 4.302478 -15.301863
v 4.575796 4.302478 -21.056826
vt 0.839643 0.943370
vt 0.841595 0.943370
vt 0.841595 0.946809
vt 0.839643 0.946809
vt 0.839643 0.953856
vt 0.841595 0.953856
vt 0.841595 0.956941
vt 0.839643 0.956941
vt 0.839643 0.963819
vt 0.841595 0.963819
vt 0.841595 0.967073
vt 0.839643 0.967073
vt 0.839643 0.973579
vt 0.841595 0.973579
vt 0.841595 0.977204
vt 0.839643 0.977204
vt 0.886811 0.966055
vt 0.889944 0.966055
vt 0.889944 0.969360
vt 0.886811 0.969360
vt 0.483855 0.971054
vt 0.480986 0.971054
vt 0.480986 0.971054
vt 0.483855 0.971054
vt 0.832011 0.964830
vt 0.832011 0.961632
vt 0.832445 0.961197
vt 0.832445 0.964690
vt 0.825458 0.961632
vt 0.822588 0.961632
vt 0.822154 0.961197
vt 0.825288 0.961197
vt 0.822588 0.968028
vt 0.822588 0.971054
vt 0.822154 0.971488
vt 0.822154 0.968183
vt 0.828640 0.971054
vt 0.832011 0.971054
vt 0.832445 0.971488
vt 0.828763 0.971488
vt -0.327220 0.529285
vt -0.322662 0.801172
vt -1.559244 0.805115
vt -1.563802 0.533228
vt 0.487037 0.961632
vt 0.490408 0.961632
vt 0.490408 0.961632
vt 0.487037 0.961632
vt 0.480986 0.964830
vt 0.480986 0.961632
vt 0.480986 0.961632
vt 0.480986 0.964830
vt 0.490408 0.968028
vt 0.490408 0.971054
vt 0.490408 0.971054
vt 0.490408 0.968028
vt 0.490408 0.964830
vt 0.490408 0.964830
vt 0.480986 0.968028
vt 0.480986 0.968028
vt 0.979864 0.525116
vt 0.984422 0.797003
vt 0.822588 0.964830
vt 0.822154 0.964690
vt 0.832011 0.968028
vt 0.832445 0.968183
vt 0.886811 0.962562
vt 0.889944 0.962562
vt 0.839643 0.960380
vt 0.841595 0.960380
vt 0.839643 0.936678
vt 0.841595 0.936678
vt 0.841595 0.939931
vt 0.839643 0.939931
vt 0.886811 0.959069
vt 0.889944 0.959069
vt 2.286947 0.520948
vt 2.291506 0.792835
vt 0.480986 0.968028
vt 0.480986 0.964830
vt 0.490408 0.961632
vt 0.490408 0.964830
vt 0.480986 0.971054
vt 0.309846 0.966958
vt 0.309846 0.966958
vt 0.659082 0.945499
vt 0.651991 0.945499
vt 0.490408 0.968028
vt 0.490408 0.971054
vt 0.480986 0.961632
vt 0.487037 0.961632
vt 0.483855 0.971054
vt 0.483855 0.971054
vt 0.480986 0.971054
vt 0.487037 0.961632
vt 0.490408 0.961632
vt 0.480986 0.964830
vt 0.480986 0.961632
vt 0.490408 0.968028
vt 0.490408 0.971054
vt 0.490408 0.964830
vt 0.480986 0.968028
vt 0.483855 0.961632
vt 0.483855 0.961632
vt 0.487037 0.971054
vt 0.487037 0.971054
vt 0.487037 0.971054
vt 0.202823 0.960573
vt 0.554390 0.956124
vt 0.561481 0.956124
vt 0.202823 0.960573
vt 2.282645 0.264334
vt 0.975561 0.268502
vt 0.879654 0.959069
vt 0.883336 0.959069
vt 0.883336 0.962562
vt 0.879654 0.962562
vt 0.883336 0.966055
vt 0.879654 0.966055
vt -0.331522 0.272671
vt 0.483855 0.961632
vt 0.483855 0.961632
vt -1.568104 0.276614
vt 0.825458 0.971054
vt 0.825288 0.971488
vt 0.828640 0.961632
vt 0.828763 0.961197
vt 0.487037 0.971054
vt 0.883336 0.969360
vt 0.879654 0.969360
vt 0.839643 0.970158
vt 0.841595 0.970158
vt 0.841595 0.950434
vt 0.839643 0.950434
vt -0.335402 0.041277
vt -1.571983 0.045220
vt 0.971681 0.037108
vt 2.278765 0.032940
vt 0.202823 0.963772
vt 0.554390 0.959563
vt 0.832553 0.967073
vt 0.832553 0.970158
vt 0.832553 0.946809
vt 0.832553 0.950434
vt 0.272315 0.962541
vt 0.272315 0.962541
vt 0.624922 0.965066
vt 0.617831 0.965066
vt 0.163445 0.969086
vt 0.505590 0.947627
vt 0.505590 0.944188
vt 0.163445 0.972285
vt 0.832553 0.956941
vt 0.832553 0.960380
vt 0.832553 0.936678
vt 0.832553 0.939931
vt 0.329704 0.970156
vt 0.329704 0.970156
vt 0.688362 0.965947
vt 0.681271 0.965947
vt 0.832553 0.973579
vt 0.832553 0.977204
vt 0.832553 0.963819
vt 0.832553 0.953856
vt 0.832553 0.943370
vt 0.831463 0.943370
vt 0.831463 0.946809
vt 0.831463 0.953856
vt 0.831463 0.956941
vt 0.831463 0.963819
vt 0.831463 0.967073
vt 0.831463 0.973579
vt 0.831463 0.977204
vt 0.831463 0.960380
vt 0.831463 0.936678
vt 0.831463 0.939931
vt 0.831463 0.970158
vt 0.831463 0.950434
vt 0.309846 0.970156
vt 0.659082 0.942059
vt 0.512681 0.944188
vt 0.163445 0.972285
vt 0.617831 0.961645
vt 0.269133 0.962541
vt 0.624922 0.961645
vt 0.269133 0.962541
vt 0.208874 0.972273
vt 0.554390 0.961075
vt 0.561481 0.961075
vt 0.208874 0.972273
vt 0.205692 0.972273
vt 0.561481 0.964497
vt 0.205692 0.972273
vt 0.554390 0.964497
vt 0.294751 0.688263
vt 0.294751 0.688263
vt 0.294747 0.688263
vt 0.294747 0.688263
vt 0.294742 0.688218
vt 0.294747 0.688263
vt 0.294747 0.688263
vt 0.294747 0.688263
vt 0.107361 0.455437
vt 0.107361 0.455437
vt 0.107361 0.455437
vt 0.107361 0.455437
vt 0.107361 0.455437
vt 0.107361 0.455437
vt 0.107361 0.455438
vt 0.107361 0.455437
vt 0.112241 0.455438
vt 0.112241 0.455438
vt 0.112241 0.455438
vt 0.112241 0.455438
vt 0.112241 0.455438
vt 0.112241 0.455438
vt 0.112241 0.455438
vt 0.112241 0.455438
vt 0.073201 0.457566
vt 0.073201 0.457566
vt 0.073201 0.457566
vt 0.073201 0.457566
vt 0.073201 0.457566
vt 0.073201 0.457566
vt 0.073201 0.457566
vt 0.073201 0.457566
vn -1.0000 0.0000 0.0000
vn 0.0000 0.0000 -1.0000
vn 1.0000 0.0000 0.0000
vn 0.0000 0.0000 1.0000
vn 0.0000 -1.0000 0.0000
vn 0.0000 1.0000 0.0000
vn -0.1381 -0.9904 0.0000
vn -0.3058 0.0000 0.9521
vn 0.3058 0.0000 0.9521
vn -0.0401 0.9992 0.0000
vn 0.9619 0.0000 0.2736
vn 0.0401 0.9992 0.0000
vn 0.3368 0.0000 -0.9416
vn 0.1381 -0.9904 0.0000
vn -0.3368 0.0000 -0.9416
vn 0.0000 0.9992 -0.0401
vn -0.9313 0.0000 0.3641
vn 0.0000 -0.9904 -0.1381
vn 0.9619 0.0000 -0.2736
vn 0.0000 -0.9904 0.1381
vn -0.9313 -0.0000 -0.3641
vn 0.0000 0.9992 0.0401
usemtl Material.001
s off
f 110/1/1 25/2/1 10/3/1 82/4/1
f 106/5/2 65/6/2 11/7/2 83/8/2
f 118/9/3 20/10/3 12/11/3 84/12/3
f 114/13/4 52/14/4 9/15/4 81/16/4
f 77/17/5 19/18/5 5/19/5 66/20/5
f 79/21/2 33/22/2 16/23/2 76/24/2
f 27/25/6 4/26/6 10/27/6 25/28/6
f 67/29/6 8/30/6 11/31/6 65/32/6
f 22/33/6 6/34/6 12/35/6 20/36/6
f 54/37/6 2/38/6 9/39/6 52/40/6
f 57/41/6 23/42/6 13/43/6 56/44/6
f 61/45/4 35/46/4 14/47/4 55/48/4
f 40/49/1 36/50/1 15/51/1 32/52/1
f 37/53/3 34/54/3 13/55/3 23/56/3
f 39/57/3 37/53/3 23/56/3 28/58/3
f 33/22/1 38/59/1 24/60/1 16/23/1
f 60/61/6 28/62/6 23/42/6 57/41/6
f 31/63/6 22/33/6 20/36/6 30/64/6
f 2/38/6 21/65/6 18/66/6 9/39/6
f 78/67/5 26/68/5 19/18/5 77/17/5
f 117/69/3 30/70/3 20/10/3 118/9/3
f 81/71/1 9/72/1 18/73/1 109/74/1
f 83/8/3 11/7/3 30/70/3 117/69/3
f 73/75/5 7/76/5 26/68/5 78/67/5
f 8/30/6 31/63/6 30/64/6 11/31/6
f 55/77/6 14/78/6 28/62/6 60/61/6
f 35/46/3 39/57/3 28/58/3 14/47/3
f 38/59/1 40/49/1 32/52/1 24/60/1
f 21/65/6 27/25/6 25/28/6 18/66/6
f 109/74/1 18/73/1 25/2/1 110/1/1
f 46/79/7 48/80/7 117/69/7 118/9/7
f 44/81/3 47/82/3 39/57/3 35/46/3
f 43/83/1 46/79/1 38/59/1 33/22/1
f 39/84/8 47/85/8 110/86/8 112/87/8
f 45/88/3 41/89/3 34/54/3 37/53/3
f 48/80/1 42/90/1 36/50/1 40/49/1
f 64/91/4 44/81/4 35/46/4 61/45/4
f 80/92/2 43/83/2 33/22/2 79/21/2
f 75/93/2 6/94/2 43/83/2 80/92/2
f 53/95/4 4/96/4 44/81/4 64/91/4
f 31/97/1 8/98/1 42/90/1 48/80/1
f 21/99/3 2/100/3 41/89/3 45/88/3
f 27/101/3 21/99/3 45/88/3 47/82/3
f 6/94/1 22/102/1 46/79/1 43/83/1
f 4/96/3 27/101/3 47/82/3 44/81/3
f 22/102/1 31/97/1 48/80/1 46/79/1
f 67/103/4 53/95/4 64/91/4 72/104/4
f 2/100/2 54/105/2 63/106/2 41/89/2
f 41/89/2 63/106/2 62/107/2 34/54/2
f 40/108/9 120/109/9 117/110/9 48/111/9
f 68/112/6 55/77/6 60/61/6 70/113/6
f 3/114/5 49/115/5 59/116/5 29/117/5
f 29/117/5 59/116/5 58/118/5 17/119/5
f 70/113/6 60/61/6 57/41/6 69/120/6
f 71/121/4 61/45/4 55/48/4 68/122/4
f 69/120/6 57/41/6 56/44/6 76/123/6
f 75/124/6 54/37/6 52/40/6 74/125/6
f 4/26/6 53/126/6 50/127/6 10/27/6
f 34/54/2 62/107/2 56/128/2 13/55/2
f 17/119/5 58/118/5 51/129/5 1/130/5
f 113/131/4 74/132/4 52/14/4 114/13/4
f 82/4/2 10/3/2 50/133/2 105/134/2
f 84/12/4 12/11/4 74/132/4 113/131/4
f 6/34/6 75/124/6 74/125/6 12/35/6
f 24/135/6 69/120/6 76/123/6 16/136/6
f 36/50/4 71/121/4 68/122/4 15/51/4
f 32/137/6 70/113/6 69/120/6 24/135/6
f 15/138/6 68/112/6 70/113/6 32/137/6
f 42/90/4 72/104/4 71/121/4 36/50/4
f 8/98/4 67/103/4 72/104/4 42/90/4
f 54/105/2 75/93/2 80/92/2 63/106/2
f 49/115/5 73/75/5 78/67/5 59/116/5
f 59/116/5 78/67/5 77/17/5 58/118/5
f 53/126/6 67/29/6 65/32/6 50/127/6
f 62/107/2 79/21/2 76/24/2 56/128/2
f 58/118/5 77/17/5 66/20/5 51/129/5
f 105/134/2 50/133/2 65/6/2 106/5/2
f 38/139/10 119/140/10 120/109/10 40/108/10
f 95/141/4 84/12/4 113/131/4 116/142/4
f 93/143/2 82/4/2 105/134/2 107/144/2
f 62/145/11 63/146/11 114/147/11 115/148/11
f 39/149/12 112/150/12 111/151/12 37/152/12
f 94/153/3 83/8/3 117/69/3 120/154/3
f 104/155/1 81/71/1 109/74/1 111/156/1
f 38/157/13 46/158/13 118/159/13 119/160/13
f 115/161/4 114/13/4 81/16/4 104/162/4
f 119/163/3 118/9/3 84/12/3 95/141/3
f 108/164/2 106/5/2 83/8/2 94/153/2
f 112/165/1 110/1/1 82/4/1 93/143/1
f 29/166/1 112/165/1 93/143/1 3/167/1
f 73/168/2 108/164/2 94/153/2 7/169/2
f 19/170/3 119/163/3 95/141/3 5/171/3
f 51/172/4 115/161/4 104/162/4 1/173/4
f 26/174/3 120/154/3 119/163/3 19/170/3
f 1/175/1 104/155/1 111/156/1 17/176/1
f 7/169/3 94/153/3 120/154/3 26/174/3
f 17/176/1 111/156/1 112/165/1 29/166/1
f 66/177/4 116/142/4 115/161/4 51/172/4
f 3/167/2 93/143/2 107/144/2 49/178/2
f 5/171/4 95/141/4 116/142/4 66/177/4
f 49/178/2 107/144/2 108/164/2 73/168/2
f 47/85/14 45/179/14 109/180/14 110/86/14
f 37/152/15 111/151/15 109/181/15 45/182/15
f 62/145/16 115/148/16 116/183/16 79/184/16
f 79/184/17 116/183/17 113/185/17 80/186/17
f 63/146/18 80/186/18 113/185/18 114/147/18
f 61/187/19 107/188/19 105/189/19 64/190/19
f 72/191/20 64/190/20 105/189/20 106/192/20
f 71/193/21 72/191/21 106/192/21 108/194/21
f 71/193/22 108/194/22 107/188/22 61/187/22
f 92/195/2 90/196/2 105/197/2 106/198/2
f 90/196/2 101/199/2 107/200/2 105/197/2
f 103/201/2 92/195/2 106/198/2 108/202/2
f 101/199/2 103/201/2 108/202/2 107/200/2
f 88/203/1 86/204/1 109/205/1 110/206/1
f 86/204/1 97/207/1 111/208/1 109/205/1
f 99/209/1 88/203/1 110/206/1 112/210/1
f 97/207/1 99/209/1 112/210/1 111/208/1
f 89/211/4 91/212/4 113/213/4 114/214/4
f 100/215/4 89/211/4 114/214/4 115/216/4
f 91/212/4 102/217/4 116/218/4 113/213/4
f 102/217/4 100/215/4 115/216/4 116/218/4
f 85/219/3 87/220/3 117/221/3 118/222/3
f 96/223/3 85/219/3 118/222/3 119/224/3
f 87/220/3 98/225/3 120/226/3 117/221/3
f 98/225/3 96/223/3 119/224/3 120/226/3
