# Blender v2.80 (sub 75) OBJ File: 'furniture.blend'
# www.blender.org
mtllib white_rug.mtl
o Cube.006_Cube.005
v -5.224649 2.353015 5.689071
v -5.224649 2.637837 5.689071
v -5.224649 2.353015 -5.860466
v -5.224649 2.637837 -5.860466
v 6.324888 2.353015 5.689071
v 6.324888 2.637837 5.689071
v 6.324888 2.353015 -5.860466
v 6.324888 2.637837 -5.860466
vt 0.153441 0.626944
vt 0.233809 0.626944
vt 0.233809 0.707312
vt 0.153441 0.707312
vt 0.233809 0.787680
vt 0.153441 0.787680
vt 0.233809 0.868048
vt 0.153441 0.868048
vt 0.233809 0.948416
vt 0.153441 0.948416
vt 0.073073 0.787680
vt 0.073073 0.868048
vt 0.019550 0.016457
vt 0.976211 0.016457
vt 0.976211 0.973117
vt 0.019550 0.973117
vn -1.0000 0.0000 0.0000
vn 0.0000 0.0000 -1.0000
vn 1.0000 0.0000 0.0000
vn 0.0000 0.0000 1.0000
vn 0.0000 -1.0000 0.0000
vn 0.0000 1.0000 0.0000
usemtl Material.006
s off
f 1/1/1 2/2/1 4/3/1 3/4/1
f 3/4/2 4/3/2 8/5/2 7/6/2
f 7/6/3 8/5/3 6/7/3 5/8/3
f 5/8/4 6/7/4 2/9/4 1/10/4
f 3/11/5 7/6/5 5/8/5 1/12/5
f 8/13/6 4/14/6 2/15/6 6/16/6
